<?xml version="1.0" encoding="UTF-8"?>
<!DOCTYPE svg PUBLIC "-//W3C//DTD SVG 1.1//EN" "http://www.w3.org/Graphics/SVG/1.1/DTD/svg11.dtd">
<!-- Creator: CorelDRAW -->
<svg xmlns="http://www.w3.org/2000/svg" xml:space="preserve" width="0.474862in" height="0.406846in" version="1.1" style="shape-rendering:geometricPrecision; text-rendering:geometricPrecision; image-rendering:optimizeQuality; fill-rule:evenodd; clip-rule:evenodd"
viewBox="0 0 49.13 42.1"
 xmlns:xlink="http://www.w3.org/1999/xlink"
 xmlns:xodm="http://www.corel.com/coreldraw/odm/2003">
 <defs>
  <style type="text/css">
   <![CDATA[
    .fil0 {fill:#02255F}
    .fil2 {fill:#F15D0A}
    .fil1 {fill:#FEFEFC}
   ]]>
  </style>
 </defs>
 <g id="Layer_x0020_1">
  <metadata id="CorelCorpID_0Corel-Layer"/>
  <g id="_2288608904048">
   <path class="fil0" d="M10.62 7.94l0 15.67c-0,0.78 0.04,0.51 1.46,1.34l12.53 7.11c0.56,-0.22 1.21,-0.69 1.75,-1 1.73,-1.01 3.41,-1.87 5.24,-2.96 1.09,-0.65 2.29,-1.29 3.47,-1.95l3.46 -2.02 -0 -15.18c-0,-0.9 0.1,-0.91 -0.31,-1.15l-5.5 -3.2c-2.45,-1.46 -4.98,-2.8 -7.35,-4.2 -0.28,-0.16 -0.64,-0.47 -0.91,-0.38l-6.45 3.7c-1.26,0.73 -2.48,1.43 -3.68,2.09 -1.26,0.7 -2.36,1.46 -3.7,2.13z"/>
   <path class="fil1" d="M14.61 10.26l-0 11.59 4.97 2.83c0.52,0.3 4.86,2.82 5.03,2.82 0.24,0 9.85,-5.65 9.93,-5.7l0.01 -11.54c-0.34,-0.31 -9.93,-5.74 -9.94,-5.74 -0.02,-0 -9.24,5.21 -10,5.74z"/>
   <path class="fil2" d="M16.61 11.36l-0 9.33c0.36,0.29 7.89,4.56 7.95,4.57 0.23,0.02 1.72,-0.92 2.01,-1.08 0.78,-0.44 5.53,-3.14 5.9,-3.48l-0 -0.49c-0.25,-0.18 -3.54,-2.06 -3.67,-2.04 -0.3,0.15 -0.6,0.46 -0.93,0.69 -0.37,0.24 -0.63,0.4 -0.99,0.61 -2.68,1.56 -1.75,1.61 -4.07,0.26 -0.45,-0.26 -1.67,-0.9 -1.98,-1.19l-0.02 -5.01 3.82 -2.24c0.17,-0.01 3.36,1.92 3.71,2.21 0.18,0.15 0.3,0.31 0.46,0.44l3.66 -2.08 0.03 -0.56c-0.71,-0.49 -7.62,-4.54 -7.92,-4.5 -0.15,0.02 -7.3,4.18 -7.94,4.56z"/>
   <path class="fil0" d="M32.55 36.05c-0.01,-0.43 0.37,-0.69 -1.39,-0.53l-0.02 6.56 1.45 0.01 0 -2.48c0.5,0.36 1.17,1.08 2.34,0.44 0.67,-0.37 1.13,-1.11 1.15,-2.19 0.03,-1.66 -1.1,-2.68 -2.49,-2.42 -0.57,0.11 -0.73,0.49 -1.04,0.6zm0.72 0.59c-0.52,0.26 -0.9,0.72 -0.68,1.6 0.16,0.62 0.69,1.14 1.41,0.83 1.26,-0.55 0.56,-3.07 -0.73,-2.42z"/>
   <path class="fil0" d="M38.1 36.06c-0.1,-0.19 -0.03,-0.26 -0.08,-0.55l-1.3 -0 -0.04 6.56 1.45 0 -0.01 -2.46c0.35,0.24 0.39,0.44 0.95,0.61 2.41,0.7 3.53,-3.4 1.49,-4.55 -0.36,-0.2 -0.86,-0.33 -1.41,-0.25 -0.59,0.1 -0.69,0.42 -1.05,0.63zm0.78 0.54c-1.34,0.44 -0.86,2.87 0.52,2.48 1.2,-0.34 0.87,-2.94 -0.52,-2.48z"/>
   <path class="fil0" d="M21.56 38.22l-1.32 -0c-0.32,2.6 5.44,2.98 5.09,-0.21 -0.22,-1.98 -3.46,-1.33 -3.55,-2.37 -0.03,-0.36 0.21,-0.57 0.51,-0.66 1.16,-0.35 1.5,0.57 1.63,0.73l1.27 0.01c0.1,-1.31 -1.31,-2.02 -2.8,-1.93 -1.24,0.07 -2.54,1.1 -1.94,2.54 0.56,1.35 2,0.99 3.06,1.54 1.04,0.55 -0.03,1.67 -1.39,1.05 -0.38,-0.17 -0.38,-0.31 -0.55,-0.7z"/>
   <path class="fil0" d="M6.09 37.98l-1.36 -0c-0.17,0.22 -0.58,1.42 -2,0.97 -1.68,-0.53 -1.56,-3.39 -0.01,-3.86 1.35,-0.42 1.74,0.64 2.08,0.98l1.37 -0.02c0.02,-1.16 -1.51,-2.52 -3.41,-2.25 -3.72,0.53 -3.56,5.77 -0.19,6.44 1.65,0.33 3.55,-0.75 3.53,-2.25z"/>
   <path class="fil0" d="M8.23 35.5c-3.06,0.86 -1.76,5.64 1.43,4.66 1.09,-0.34 1.97,-1.5 1.59,-3.05 -0.28,-1.14 -1.56,-2.02 -3.02,-1.61zm0.4 1.1c-1.3,0.52 -0.74,3.03 0.65,2.47 1.1,-0.44 0.7,-3.01 -0.65,-2.47z"/>
   <path class="fil0" d="M19.68 38.69l-1.19 -0.01c-0.41,0.3 -0.47,0.66 -1.29,0.48 -0.45,-0.1 -0.76,-0.51 -0.79,-1.01 0.84,-0.05 1.79,-0.01 2.64,-0.01 0.68,-0 0.79,0.12 0.73,-0.62 -0.17,-2.35 -3.04,-2.62 -4.1,-1.42 -0.95,1.07 -0.81,3.03 0.45,3.79 1.59,0.95 3.44,-0.01 3.55,-1.19zm-3.27 -1.4l2.06 -0c-0.13,-1.16 -1.9,-1.11 -2.06,0z"/>
   <path class="fil0" d="M44.55 40.89l0 1.2c2.09,0.05 2.14,-0.58 2.96,-2.6l1.62 -3.98 -1.5 -0.01 -0.77 2.23c-0.07,0.21 -0.11,0.65 -0.29,0.74 -0.15,-0.08 -0.88,-2.58 -1,-2.94l-1.5 -0.02c0.03,0.55 1.77,4.37 1.78,4.58 0,0.17 -0.23,0.52 -0.37,0.64 -0.26,0.24 -0.54,0.16 -0.94,0.16z"/>
   <path class="fil0" d="M28.99 39.54l0.02 0.6 1.34 0.01 0.02 -4.63 -1.42 -0.02c-0.09,1.07 0.46,3.51 -0.8,3.57 -1.25,0.06 -0.7,-1.65 -0.84,-3.57l-1.39 -0c-0.12,0.83 -0.09,3.39 0.25,3.99 0.45,0.79 1.56,0.95 2.22,0.56 0.3,-0.18 0.38,-0.39 0.59,-0.51z"/>
   <polygon class="fil0" points="42.19,40.15 43.59,40.16 43.6,33.6 42.17,33.6 "/>
   <path class="fil0" d="M13.28 36.26l0 -0.75 -1.32 0 -0.02 4.67 1.4 -0.01c0.01,-0.79 -0.05,-1.7 0.01,-2.45 0.08,-0.98 0.69,-0.91 1.5,-0.99l0.05 -1.29c-1.31,0 -1.33,0.6 -1.62,0.82z"/>
  </g>
 </g>
</svg>
