<?xml version="1.0" encoding="UTF-8"?>
<!DOCTYPE svg PUBLIC "-//W3C//DTD SVG 1.1//EN" "http://www.w3.org/Graphics/SVG/1.1/DTD/svg11.dtd">
<!-- Creator: CorelDRAW -->
<svg xmlns="http://www.w3.org/2000/svg" xml:space="preserve" width="0.269752in" height="0.309795in" version="1.1" style="shape-rendering:geometricPrecision; text-rendering:geometricPrecision; image-rendering:optimizeQuality; fill-rule:evenodd; clip-rule:evenodd"
viewBox="0 0 13.32 15.3"
 xmlns:xlink="http://www.w3.org/1999/xlink"
 xmlns:xodm="http://www.corel.com/coreldraw/odm/2003">
 <defs>
  <style type="text/css">
   <![CDATA[
    .fil0 {fill:#02255F}
    .fil2 {fill:#F15D0A}
    .fil1 {fill:#FEFEFC}
   ]]>
  </style>
 </defs>
 <g id="Layer_x0020_1">
  <metadata id="CorelCorpID_0Corel-Layer"/>
  <g id="_2288252343568">
   <path class="fil0" d="M-0 3.79l0 7.48c-0,0.37 0.02,0.24 0.7,0.64l5.98 3.39c0.27,-0.11 0.58,-0.33 0.83,-0.48 0.82,-0.48 1.63,-0.89 2.5,-1.41 0.52,-0.31 1.09,-0.61 1.66,-0.93l1.65 -0.96 -0 -7.25c-0,-0.43 0.05,-0.44 -0.15,-0.55l-2.63 -1.53c-1.17,-0.7 -2.38,-1.34 -3.51,-2 -0.13,-0.08 -0.3,-0.22 -0.43,-0.18l-3.08 1.77c-0.6,0.35 -1.18,0.68 -1.75,1 -0.6,0.33 -1.13,0.69 -1.77,1.02z"/>
   <path class="fil1" d="M1.9 4.9l-0 5.53 2.37 1.35c0.25,0.14 2.32,1.35 2.4,1.35 0.12,0 4.7,-2.7 4.74,-2.72l0 -5.51c-0.16,-0.15 -4.74,-2.74 -4.75,-2.74 -0.01,-0 -4.41,2.49 -4.77,2.74z"/>
   <path class="fil2" d="M2.86 5.42l-0 4.45c0.17,0.14 3.77,2.18 3.79,2.18 0.11,0.01 0.82,-0.44 0.96,-0.52 0.37,-0.21 2.64,-1.5 2.81,-1.66l-0 -0.23c-0.12,-0.08 -1.69,-0.98 -1.75,-0.97 -0.14,0.07 -0.28,0.22 -0.45,0.33 -0.17,0.12 -0.3,0.19 -0.47,0.29 -1.28,0.75 -0.83,0.77 -1.94,0.12 -0.21,-0.12 -0.8,-0.43 -0.95,-0.57l-0.01 -2.39 1.82 -1.07c0.08,-0 1.6,0.91 1.77,1.06 0.09,0.07 0.14,0.15 0.22,0.21l1.75 -0.99 0.01 -0.27c-0.34,-0.23 -3.64,-2.17 -3.78,-2.15 -0.07,0.01 -3.49,1.99 -3.79,2.18z"/>
  </g>
 </g>
</svg>
