<?xml version="1.0" encoding="UTF-8"?>
<!DOCTYPE svg PUBLIC "-//W3C//DTD SVG 1.1//EN" "http://www.w3.org/Graphics/SVG/1.1/DTD/svg11.dtd">
<!-- Creator: CorelDRAW -->
<svg xmlns="http://www.w3.org/2000/svg" xml:space="preserve" width="0.474862in" height="0.446583in" version="1.1" style="shape-rendering:geometricPrecision; text-rendering:geometricPrecision; image-rendering:optimizeQuality; fill-rule:evenodd; clip-rule:evenodd"
viewBox="0 0 54.48 51.24"
 xmlns:xlink="http://www.w3.org/1999/xlink"
 xmlns:xodm="http://www.corel.com/coreldraw/odm/2003">
 <defs>
  <style type="text/css">
   <![CDATA[
    .fil0 {fill:#02255F}
    .fil1 {fill:#F15D0A}
   ]]>
  </style>
 </defs>
 <g id="Layer_x0020_1">
  <metadata id="CorelCorpID_0Corel-Layer"/>
  <g id="_2288252348656">
   <g>
    <path class="fil0" d="M11.77 8.81l0 17.37c-0,0.87 0.05,0.56 1.62,1.48l13.89 7.88c0.62,-0.25 1.34,-0.76 1.94,-1.11 1.91,-1.12 3.78,-2.07 5.81,-3.28 1.21,-0.72 2.54,-1.43 3.85,-2.16l3.84 -2.23 -0 -16.84c-0,-1 0.11,-1.01 -0.35,-1.28l-6.1 -3.54c-2.72,-1.62 -5.52,-3.1 -8.15,-4.65 -0.31,-0.18 -0.71,-0.52 -1.01,-0.42l-7.15 4.11c-1.4,0.81 -2.75,1.59 -4.08,2.32 -1.4,0.77 -2.62,1.61 -4.1,2.36zm4.42 2.59l-0.01 12.85 5.52 3.14c0.57,0.33 5.39,3.13 5.58,3.13 0.27,0 10.92,-6.26 11.01,-6.32l0.01 -12.79c-0.37,-0.35 -11.01,-6.36 -11.03,-6.36 -0.02,-0 -10.24,5.77 -11.08,6.36z"/>
    <path class="fil1" d="M18.45 12.6l-0 10.34c0.4,0.32 8.75,5.06 8.81,5.06 0.25,0.02 1.9,-1.02 2.22,-1.2 0.87,-0.49 6.13,-3.49 6.54,-3.86l-0.01 -0.55c-0.28,-0.2 -3.93,-2.28 -4.07,-2.26 -0.33,0.17 -0.66,0.51 -1.03,0.76 -0.41,0.27 -0.69,0.45 -1.09,0.68 -2.97,1.73 -1.94,1.79 -4.51,0.29 -0.5,-0.29 -1.85,-1 -2.2,-1.32l-0.02 -5.55 4.23 -2.48c0.19,-0.01 3.72,2.12 4.11,2.45 0.2,0.17 0.34,0.35 0.51,0.49l4.06 -2.31 0.03 -0.62c-0.79,-0.54 -8.45,-5.03 -8.78,-4.99 -0.16,0.02 -8.1,4.63 -8.81,5.06z"/>
   </g>
   <g>
    <path class="fil0" d="M36.1 44.53c-0.01,-0.48 0.41,-0.76 -1.54,-0.59l-0.02 7.27 1.61 0.01 0 -2.75c0.55,0.4 1.3,1.2 2.59,0.49 0.74,-0.41 1.26,-1.23 1.28,-2.43 0.03,-1.84 -1.21,-2.97 -2.76,-2.68 -0.63,0.12 -0.81,0.55 -1.15,0.67zm0.8 0.65c-0.57,0.29 -1,0.8 -0.75,1.77 0.18,0.68 0.77,1.26 1.56,0.92 1.4,-0.61 0.62,-3.41 -0.81,-2.69z"/>
    <path class="fil0" d="M42.24 44.55c-0.11,-0.22 -0.03,-0.29 -0.09,-0.61l-1.45 -0 -0.04 7.28 1.61 0 -0.01 -2.72c0.39,0.26 0.43,0.49 1.05,0.67 2.67,0.77 3.91,-3.77 1.66,-5.05 -0.4,-0.23 -0.96,-0.37 -1.57,-0.27 -0.65,0.11 -0.77,0.46 -1.16,0.7zm0.86 0.6c-1.49,0.48 -0.95,3.18 0.58,2.75 1.33,-0.37 0.97,-3.25 -0.58,-2.75z"/>
    <path class="fil0" d="M23.9 46.93l-1.46 -0c-0.35,2.88 6.03,3.3 5.64,-0.24 -0.25,-2.2 -3.84,-1.47 -3.93,-2.63 -0.03,-0.4 0.23,-0.63 0.56,-0.73 1.29,-0.39 1.66,0.64 1.81,0.81l1.41 0.01c0.11,-1.45 -1.45,-2.24 -3.11,-2.14 -1.37,0.08 -2.82,1.22 -2.15,2.81 0.63,1.49 2.22,1.1 3.39,1.71 1.16,0.61 -0.03,1.85 -1.55,1.17 -0.43,-0.19 -0.43,-0.35 -0.61,-0.77z"/>
    <path class="fil0" d="M6.75 46.68l-1.51 -0c-0.19,0.25 -0.64,1.57 -2.22,1.07 -1.87,-0.59 -1.73,-3.76 -0.01,-4.28 1.5,-0.46 1.93,0.71 2.31,1.08l1.52 -0.02c0.02,-1.29 -1.68,-2.8 -3.78,-2.5 -4.12,0.59 -3.95,6.4 -0.22,7.15 1.83,0.37 3.94,-0.83 3.91,-2.5z"/>
    <path class="fil0" d="M9.13 43.93c-3.4,0.96 -1.96,6.26 1.59,5.16 1.21,-0.37 2.18,-1.67 1.77,-3.38 -0.31,-1.26 -1.73,-2.24 -3.35,-1.78zm0.44 1.22c-1.44,0.58 -0.82,3.36 0.72,2.74 1.22,-0.49 0.77,-3.34 -0.72,-2.74z"/>
    <path class="fil0" d="M21.82 47.46l-1.31 -0.01c-0.46,0.34 -0.52,0.74 -1.43,0.53 -0.5,-0.11 -0.84,-0.57 -0.87,-1.12 0.93,-0.05 1.98,-0.01 2.92,-0.02 0.75,-0 0.87,0.14 0.81,-0.69 -0.19,-2.6 -3.37,-2.91 -4.55,-1.58 -1.05,1.19 -0.9,3.37 0.5,4.2 1.76,1.05 3.81,-0.01 3.94,-1.32zm-3.62 -1.55l2.28 -0c-0.15,-1.28 -2.1,-1.23 -2.28,0z"/>
    <path class="fil0" d="M49.39 49.9l0 1.33c2.32,0.06 2.37,-0.64 3.29,-2.89l1.8 -4.41 -1.66 -0.01 -0.86 2.47c-0.08,0.23 -0.12,0.72 -0.32,0.82 -0.17,-0.09 -0.97,-2.86 -1.11,-3.25l-1.66 -0.02c0.03,0.6 1.97,4.85 1.97,5.08 0,0.19 -0.26,0.58 -0.41,0.71 -0.29,0.26 -0.59,0.17 -1.04,0.18z"/>
    <path class="fil0" d="M32.14 48.4l0.02 0.67 1.49 0.01 0.02 -5.13 -1.57 -0.02c-0.1,1.18 0.51,3.89 -0.88,3.95 -1.39,0.07 -0.77,-1.83 -0.93,-3.95l-1.54 -0c-0.13,0.92 -0.1,3.76 0.28,4.43 0.5,0.88 1.73,1.05 2.46,0.62 0.33,-0.2 0.42,-0.44 0.66,-0.57z"/>
    <polygon class="fil0" points="46.79,49.08 48.33,49.09 48.34,41.82 46.76,41.81 "/>
    <path class="fil0" d="M14.73 44.77l0 -0.83 -1.47 0 -0.02 5.17 1.56 -0.01c0.02,-0.87 -0.06,-1.88 0.01,-2.71 0.09,-1.08 0.76,-1.01 1.66,-1.09l0.05 -1.43c-1.45,0 -1.47,0.67 -1.79,0.91z"/>
   </g>
  </g>
 </g>
</svg>
