<?xml version="1.0" encoding="UTF-8"?>
<!DOCTYPE svg PUBLIC "-//W3C//DTD SVG 1.1//EN" "http://www.w3.org/Graphics/SVG/1.1/DTD/svg11.dtd">
<!-- Creator: CorelDRAW -->
<svg xmlns="http://www.w3.org/2000/svg" xml:space="preserve" width="0.269752in" height="0.309795in" version="1.1" style="shape-rendering:geometricPrecision; text-rendering:geometricPrecision; image-rendering:optimizeQuality; fill-rule:evenodd; clip-rule:evenodd"
viewBox="0 0 16.75 19.24"
 xmlns:xlink="http://www.w3.org/1999/xlink"
 xmlns:xodm="http://www.corel.com/coreldraw/odm/2003">
 <defs>
  <style type="text/css">
   <![CDATA[
    .fil0 {fill:#02255F}
    .fil1 {fill:#F15D0A}
   ]]>
  </style>
 </defs>
 <g id="Layer_x0020_1">
  <metadata id="CorelCorpID_0Corel-Layer"/>
  <g id="_2288608890752">
   <path class="fil0" d="M-0 4.77l0 9.4c-0,0.47 0.03,0.3 0.87,0.8l7.52 4.27c0.34,-0.13 0.73,-0.41 1.05,-0.6 1.04,-0.61 2.05,-1.12 3.14,-1.78 0.66,-0.39 1.38,-0.77 2.08,-1.17l2.08 -1.21 -0 -9.11c-0,-0.54 0.06,-0.55 -0.19,-0.69l-3.3 -1.92c-1.47,-0.88 -2.99,-1.68 -4.41,-2.52 -0.17,-0.1 -0.38,-0.28 -0.55,-0.23l-3.87 2.22c-0.76,0.44 -1.49,0.86 -2.21,1.26 -0.76,0.42 -1.42,0.87 -2.22,1.28zm2.39 1.4l-0 6.96 2.99 1.7c0.31,0.18 2.92,1.69 3.02,1.69 0.15,0 5.91,-3.39 5.96,-3.42l0.01 -6.92c-0.2,-0.19 -5.96,-3.44 -5.97,-3.44 -0.01,-0 -5.54,3.12 -6,3.44z"/>
   <path class="fil1" d="M3.62 6.82l-0 5.6c0.22,0.18 4.73,2.74 4.77,2.74 0.14,0.01 1.03,-0.55 1.2,-0.65 0.47,-0.26 3.32,-1.89 3.54,-2.09l-0 -0.3c-0.15,-0.11 -2.12,-1.24 -2.2,-1.22 -0.18,0.09 -0.36,0.28 -0.56,0.41 -0.22,0.15 -0.38,0.24 -0.59,0.37 -1.61,0.94 -1.05,0.97 -2.44,0.16 -0.27,-0.16 -1,-0.54 -1.19,-0.71l-0.01 -3 2.29 -1.34c0.1,-0 2.02,1.15 2.23,1.33 0.11,0.09 0.18,0.19 0.28,0.26l2.2 -1.25 0.02 -0.33c-0.43,-0.29 -4.57,-2.72 -4.75,-2.7 -0.09,0.01 -4.38,2.51 -4.77,2.74z"/>
  </g>
 </g>
</svg>
